<svg width="18" height="18" viewBox="0 0 18 18" fill="none" xmlns="http://www.w3.org/2000/svg">
<path d="M17.9929 7.25813C17.9752 6.79309 17.9147 6.33068 17.812 5.87678L17.4195 5.82045L17.664 5.31529C17.5261 4.87069 17.3471 4.43992 17.1292 4.02858L16.8389 3.77426V3.52603C16.5906 3.13247 16.3066 2.76259 15.9905 2.42107L15.6776 2.32265L15.5792 2.01055C15.2377 1.69419 14.8678 1.40992 14.4742 1.16136H14.226L13.9716 0.871034C13.5603 0.653138 13.1295 0.474104 12.6849 0.33626L12.1937 0.580711L12.1235 0.188195C11.6695 0.0855319 11.2071 0.0249848 10.7421 0.00732422L10.4518 0.290389L10.1615 0.00732422C9.69641 0.0249848 9.234 0.0855319 8.7801 0.188195L8.70984 0.580711L8.21861 0.33626C7.77401 0.474104 7.34324 0.653138 6.9319 0.871034L6.67758 1.16136H6.42935C6.03579 1.40965 5.66591 1.69362 5.32439 2.00968L5.22597 2.32265L4.91387 2.42107C4.59751 2.76256 4.31324 3.13244 4.06468 3.52603V3.77426L3.77435 4.02858C3.55646 4.43992 3.37742 4.87069 3.23958 5.31529L3.48403 5.82045L3.09152 5.87678C2.98885 6.33068 2.92831 6.79309 2.91064 7.25813L3.19371 7.54845L2.91064 7.83878C2.92831 8.30381 2.98885 8.76622 3.09152 9.22013L3.48403 9.27645L3.23958 9.78161C3.37742 10.2262 3.55646 10.657 3.77435 11.0683L4.06468 11.3226V11.5709C4.31297 11.9644 4.59694 12.3343 4.913 12.6758L5.22597 12.7743L5.32439 13.0864C5.66588 13.4027 6.03576 13.687 6.42935 13.9355L6.9679 13.6452L6.9319 14.2259C7.34324 14.4438 7.77401 14.6228 8.21861 14.7606L8.70984 14.5162L8.7801 14.9087C9.234 15.0114 9.69641 15.0719 10.1615 15.0896L10.4518 14.8065L10.7421 15.0896C11.2071 15.0719 11.6695 15.0114 12.1235 14.9087L12.1937 14.5162L12.6849 14.7606C13.1295 14.6228 13.5603 14.4438 13.9716 14.2259L14.226 13.9355H14.4742C14.8678 13.6873 15.2376 13.4033 15.5792 13.0872L15.6776 12.7743L15.9897 12.6758C16.306 12.3343 16.5903 11.9645 16.8389 11.5709V11.3226L17.1292 11.0683C17.3471 10.657 17.5261 10.2262 17.664 9.78161L17.4195 9.29039L17.812 9.22013C17.9147 8.76622 17.9752 8.30381 17.9929 7.83878L17.7098 7.54845L17.9929 7.25813Z" fill="#FFC864"/>
<path d="M7.54855 2.32251C6.50055 2.32191 5.46244 2.52513 4.49203 2.92087C4.34077 3.11567 4.19764 3.31687 4.06555 3.5259L4.06468 3.77412L3.77435 4.02845C3.55646 4.43978 3.37742 4.87055 3.23958 5.31516L3.48403 5.82032L3.09152 5.87664C2.98885 6.33055 2.92831 6.79296 2.91064 7.25799L3.19371 7.54832L2.91064 7.83864C2.92831 8.30368 2.98885 8.76609 3.09152 9.21999L3.48403 9.27632L3.23958 9.78148C3.37742 10.2261 3.55646 10.6569 3.77435 11.0682L4.06468 11.3225V11.5707C4.31297 11.9643 4.59694 12.3342 4.913 12.6757L5.22597 12.7741L5.32439 13.0862C5.66588 13.4026 6.03576 13.6868 6.42935 13.9354L6.9679 13.6451L6.9319 14.2257C7.34324 14.4436 7.77401 14.6227 8.21861 14.7605L8.70984 14.5161L8.7801 14.9086C9.234 15.0112 9.69641 15.0718 10.1615 15.0894L10.4518 14.8064L10.7421 15.0894C11.2071 15.0718 11.6695 15.0112 12.1235 14.9086L12.1937 14.5161L12.6849 14.7605C13.1295 14.6227 13.5603 14.4436 13.9716 14.2257L14.226 13.9354H14.4742C14.6832 13.8033 14.8844 13.6602 15.0792 13.5089C15.5811 12.2749 15.7719 10.9365 15.6348 9.61142C15.4976 8.28635 15.0368 7.01532 14.2929 5.91025C13.549 4.80519 12.5447 3.89998 11.3687 3.27434C10.1926 2.64871 8.88069 2.32184 7.54855 2.32251Z" fill="#FCB446"/>
<path d="M10.4515 13.3548C13.6583 13.3548 16.2579 10.7552 16.2579 7.5484C16.2579 4.34158 13.6583 1.74194 10.4515 1.74194C7.24466 1.74194 4.64502 4.34158 4.64502 7.5484C4.64502 10.7552 7.24466 13.3548 10.4515 13.3548Z" fill="#FFAA32"/>
<path d="M5.22566 8.12904C5.22406 7.01555 5.54313 5.92516 6.14472 4.98818C6.74631 4.0512 7.60498 3.30726 8.6181 2.84528C9.63123 2.3833 10.7559 2.22281 11.8579 2.38301C12.9598 2.54321 13.9922 3.01731 14.8319 3.74865C14.3106 3.1457 13.6707 2.65665 12.952 2.31205C12.2333 1.96744 11.4514 1.77467 10.6549 1.74576C9.85836 1.71685 9.06445 1.85243 8.32269 2.14403C7.58092 2.43563 6.90723 2.87699 6.34365 3.44057C5.78007 4.00415 5.33871 4.67785 5.0471 5.41961C4.7555 6.16138 4.61993 6.95528 4.64884 7.75178C4.67774 8.54828 4.87052 9.33027 5.21512 10.0489C5.55973 10.7676 6.04877 11.4075 6.65172 11.9288C5.7325 10.8763 5.22586 9.5264 5.22566 8.12904Z" fill="#FF9C28"/>
<path d="M10.4515 0.870968C10.5285 0.870968 10.6023 0.84038 10.6567 0.785934C10.7112 0.731488 10.7418 0.657643 10.7418 0.580645V0.00725806C10.6454 0.00377419 10.5487 0 10.4515 0C10.3542 0 10.2575 0.00377419 10.1611 0.00725806V0.580645C10.1611 0.657643 10.1917 0.731488 10.2462 0.785934C10.3006 0.84038 10.3745 0.870968 10.4515 0.870968Z" fill="#FFAA32"/>
<path d="M10.4515 14.2258C10.3745 14.2258 10.3006 14.2564 10.2462 14.3109C10.1917 14.3653 10.1611 14.4392 10.1611 14.5162V15.0895C10.2575 15.093 10.3542 15.0968 10.4515 15.0968C10.5487 15.0968 10.6454 15.093 10.7418 15.0895V14.5162C10.7418 14.4392 10.7112 14.3653 10.6567 14.3109C10.6023 14.2564 10.5285 14.2258 10.4515 14.2258Z" fill="#FFAA32"/>
<path d="M8.72342 1.09868C8.76025 1.08881 8.79478 1.07178 8.82503 1.04857C8.85528 1.02535 8.88066 0.996405 8.89972 0.963379C8.91878 0.930353 8.93115 0.893896 8.93612 0.85609C8.94109 0.818283 8.93856 0.779868 8.92868 0.743039L8.77975 0.188232C8.59016 0.2312 8.40233 0.279394 8.21826 0.336297L8.36778 0.893426C8.37765 0.930258 8.39468 0.964784 8.41789 0.995034C8.44111 1.02528 8.47006 1.05066 8.50308 1.06972C8.53611 1.08878 8.57257 1.10115 8.61037 1.10612C8.64818 1.11109 8.68659 1.10856 8.72342 1.09868Z" fill="#FFAA32"/>
<path d="M12.1795 13.9982C12.1427 14.0081 12.1082 14.0251 12.0779 14.0483C12.0477 14.0715 12.0223 14.1005 12.0032 14.1335C11.9842 14.1665 11.9718 14.203 11.9668 14.2408C11.9619 14.2786 11.9644 14.317 11.9743 14.3538L12.1232 14.9086C12.3128 14.8657 12.5006 14.8175 12.6847 14.7606L12.5352 14.2035C12.5253 14.1666 12.5083 14.1321 12.4851 14.1018C12.4618 14.0716 12.4329 14.0462 12.3999 14.0272C12.3668 14.0081 12.3304 13.9957 12.2926 13.9908C12.2548 13.9858 12.2164 13.9883 12.1795 13.9982Z" fill="#FFAA32"/>
<path d="M7.11291 1.76587C7.14596 1.7468 7.17494 1.72141 7.19817 1.69114C7.2214 1.66087 7.23844 1.62632 7.24831 1.58946C7.25818 1.5526 7.26068 1.51416 7.25568 1.47633C7.25068 1.4385 7.23827 1.40203 7.21917 1.369L6.93175 0.871094C6.76007 0.962061 6.59255 1.05884 6.4292 1.16142L6.71633 1.65845C6.7353 1.69156 6.7606 1.72061 6.79081 1.74393C6.82101 1.76726 6.85552 1.7844 6.89235 1.79438C6.92918 1.80435 6.96762 1.80697 7.00547 1.80208C7.04331 1.79719 7.07982 1.78488 7.11291 1.76587Z" fill="#FFAA32"/>
<path d="M13.7903 13.3311C13.7572 13.3501 13.7283 13.3755 13.705 13.4058C13.6818 13.4361 13.6648 13.4706 13.6549 13.5075C13.645 13.5444 13.6425 13.5828 13.6475 13.6206C13.6525 13.6585 13.6649 13.6949 13.684 13.728L13.9715 14.2259C14.143 14.1353 14.3106 14.0377 14.474 13.9355L14.1869 13.4385C14.1679 13.4054 14.1426 13.3763 14.1124 13.353C14.0822 13.3297 14.0477 13.3126 14.0109 13.3026C13.974 13.2926 13.9356 13.29 13.8977 13.2949C13.8599 13.2998 13.8234 13.3121 13.7903 13.3311Z" fill="#FFAA32"/>
<path d="M5.72957 2.82649C5.78399 2.77205 5.81457 2.69821 5.81457 2.62123C5.81457 2.54425 5.78399 2.47042 5.72957 2.41597L5.32311 2.00952C5.18124 2.14113 5.0444 2.27797 4.9126 2.42004L5.31905 2.82649C5.37349 2.88092 5.44732 2.91149 5.52431 2.91149C5.60129 2.91149 5.67512 2.88092 5.72957 2.82649Z" fill="#FFAA32"/>
<path d="M15.1734 12.2703C15.119 12.3247 15.0884 12.3986 15.0884 12.4756C15.0884 12.5525 15.119 12.6264 15.1734 12.6808L15.5798 13.0873C15.7217 12.9557 15.8585 12.8188 15.9903 12.6768L15.5839 12.2703C15.5295 12.2159 15.4556 12.1853 15.3786 12.1853C15.3017 12.1853 15.2278 12.2159 15.1734 12.2703Z" fill="#FFAA32"/>
<path d="M5.72958 2.82667C5.76924 2.7868 5.79647 2.73628 5.80797 2.68124C5.81946 2.6262 5.81472 2.569 5.79433 2.5166C5.58384 2.56334 5.37597 2.61705 5.17188 2.67947L5.31907 2.82667C5.37351 2.88109 5.44734 2.91167 5.52433 2.91167C5.60131 2.91167 5.67514 2.88109 5.72958 2.82667Z" fill="#FF9C28"/>
<path d="M15.1734 12.2703C15.119 12.3247 15.0884 12.3986 15.0884 12.4756C15.0884 12.5525 15.119 12.6264 15.1734 12.6808L15.3206 12.828C15.383 12.6248 15.4367 12.416 15.4834 12.2056C15.431 12.1852 15.3738 12.1804 15.3188 12.1919C15.2638 12.2034 15.2132 12.2306 15.1734 12.2703Z" fill="#FF9C28"/>
<path d="M4.66919 4.20959C4.68824 4.17655 4.70059 4.14009 4.70555 4.10228C4.7105 4.06447 4.70796 4.02605 4.69807 3.98923C4.68817 3.9524 4.67112 3.91788 4.64788 3.88765C4.62465 3.85741 4.59568 3.83205 4.56264 3.81301L4.06474 3.52588C3.96158 3.68943 3.8648 3.85694 3.77441 4.02843L4.27232 4.31585C4.30535 4.33495 4.34182 4.34736 4.37965 4.35236C4.41748 4.35736 4.45592 4.35486 4.49278 4.34499C4.52964 4.33512 4.56419 4.31808 4.59446 4.29485C4.62473 4.27162 4.65012 4.24264 4.66919 4.20959Z" fill="#FFAA32"/>
<path d="M16.2341 10.887C16.2151 10.92 16.2027 10.9565 16.1978 10.9943C16.1928 11.0321 16.1954 11.0705 16.2053 11.1073C16.2151 11.1442 16.2322 11.1787 16.2554 11.2089C16.2787 11.2392 16.3076 11.2645 16.3407 11.2836L16.8386 11.5707C16.9417 11.4072 17.0392 11.2397 17.1289 11.0681L16.631 10.7807C16.598 10.7616 16.5615 10.7492 16.5237 10.7442C16.4858 10.7392 16.4474 10.7417 16.4105 10.7516C16.3737 10.7614 16.3391 10.7785 16.3089 10.8017C16.2786 10.825 16.2532 10.8539 16.2341 10.887Z" fill="#FFAA32"/>
<path d="M4.00176 5.82035C4.01164 5.78352 4.01417 5.7451 4.0092 5.7073C4.00423 5.66949 3.99186 5.63303 3.9728 5.60001C3.95374 5.56698 3.92836 5.53803 3.89811 5.51482C3.86786 5.4916 3.83333 5.47457 3.7965 5.4647L3.23937 5.31519C3.18131 5.49925 3.13428 5.68709 3.09131 5.87667L3.64612 6.0256C3.68294 6.03548 3.72136 6.03801 3.75917 6.03304C3.79697 6.02807 3.83343 6.01571 3.86646 5.99664C3.89948 5.97758 3.92843 5.9522 3.95164 5.92195C3.97486 5.89171 3.99189 5.85718 4.00176 5.82035Z" fill="#FFAA32"/>
<path d="M16.9015 9.27645C16.8916 9.31328 16.8891 9.35169 16.8941 9.3895C16.899 9.42731 16.9114 9.46376 16.9305 9.49679C16.9495 9.52982 16.9749 9.55876 17.0052 9.58198C17.0354 9.6052 17.0699 9.62222 17.1068 9.63209L17.6639 9.78161C17.722 9.59755 17.769 9.40971 17.812 9.22013L17.2572 9.07119C17.2203 9.06131 17.1819 9.05879 17.1441 9.06376C17.1063 9.06872 17.0698 9.08109 17.0368 9.10015C17.0038 9.11921 16.9748 9.14459 16.9516 9.17484C16.9284 9.20509 16.9114 9.23962 16.9015 9.27645Z" fill="#FFAA32"/>
<path d="M3.77429 7.54838C3.77429 7.47138 3.7437 7.39754 3.68925 7.34309C3.63481 7.28864 3.56096 7.25806 3.48397 7.25806H2.91058C2.90709 7.35444 2.90332 7.45112 2.90332 7.54838C2.90332 7.64564 2.90709 7.74231 2.91058 7.8387H3.48397C3.56096 7.8387 3.63481 7.80811 3.68925 7.75367C3.7437 7.69922 3.77429 7.62538 3.77429 7.54838Z" fill="#FFAA32"/>
<path d="M17.1289 7.54838C17.1289 7.62538 17.1595 7.69922 17.2139 7.75367C17.2684 7.80811 17.3422 7.8387 17.4192 7.8387H17.9926C17.9961 7.74231 17.9999 7.64564 17.9999 7.54838C17.9999 7.45112 17.9961 7.35444 17.9926 7.25806H17.4192C17.3422 7.25806 17.2684 7.28864 17.2139 7.34309C17.1595 7.39754 17.1289 7.47138 17.1289 7.54838Z" fill="#FFAA32"/>
<path d="M4.00176 9.27645C3.99189 9.23962 3.97486 9.20509 3.95164 9.17484C3.92843 9.14459 3.89948 9.11921 3.86646 9.10015C3.83343 9.08109 3.79697 9.06872 3.75917 9.06376C3.72136 9.05879 3.68294 9.06131 3.64612 9.07119L3.09131 9.22013C3.13428 9.40971 3.18247 9.59755 3.23937 9.78161L3.7965 9.63209C3.83333 9.62222 3.86786 9.6052 3.89811 9.58198C3.92836 9.55876 3.95374 9.52982 3.9728 9.49679C3.99186 9.46376 4.00423 9.42731 4.0092 9.3895C4.01417 9.35169 4.01164 9.31328 4.00176 9.27645Z" fill="#FFAA32"/>
<path d="M16.9015 5.82035C16.9114 5.85718 16.9284 5.89171 16.9516 5.92195C16.9748 5.9522 17.0038 5.97758 17.0368 5.99664C17.0698 6.01571 17.1063 6.02807 17.1441 6.03304C17.1819 6.03801 17.2203 6.03548 17.2572 6.0256L17.812 5.87667C17.769 5.68709 17.7208 5.49925 17.6639 5.31519L17.1068 5.4647C17.0699 5.47457 17.0354 5.4916 17.0052 5.51482C16.9749 5.53803 16.9495 5.56698 16.9305 5.60001C16.9114 5.63303 16.899 5.66949 16.8941 5.7073C16.8891 5.7451 16.8916 5.78352 16.9015 5.82035Z" fill="#FFAA32"/>
<path d="M4.66919 10.887C4.65012 10.8539 4.62473 10.825 4.59446 10.8017C4.56419 10.7785 4.52964 10.7614 4.49278 10.7516C4.45592 10.7417 4.41748 10.7392 4.37965 10.7442C4.34182 10.7492 4.30535 10.7616 4.27232 10.7807L3.77441 11.0681C3.86538 11.2398 3.96216 11.4073 4.06474 11.5707L4.56177 11.2836C4.59488 11.2646 4.62393 11.2393 4.64726 11.2091C4.67058 11.1789 4.68772 11.1444 4.6977 11.1075C4.70767 11.0707 4.71029 11.0323 4.7054 10.9944C4.70051 10.9566 4.6882 10.9201 4.66919 10.887Z" fill="#FFAA32"/>
<path d="M16.2344 4.20959C16.2535 4.24264 16.2789 4.27162 16.3091 4.29485C16.3394 4.31808 16.374 4.33512 16.4108 4.34499C16.4477 4.35486 16.4861 4.35736 16.5239 4.35236C16.5618 4.34736 16.5982 4.33495 16.6313 4.31585L17.1292 4.02843C17.0386 3.85685 16.9411 3.68933 16.8389 3.52588L16.3418 3.81301C16.3087 3.83197 16.2797 3.85728 16.2563 3.88749C16.233 3.91769 16.2159 3.9522 16.2059 3.98903C16.1959 4.02586 16.1933 4.0643 16.1982 4.10215C16.2031 4.13999 16.2154 4.1765 16.2344 4.20959Z" fill="#FFAA32"/>
<path d="M5.72957 12.2703C5.67512 12.2159 5.60129 12.1853 5.52431 12.1853C5.44732 12.1853 5.37349 12.2159 5.31905 12.2703L4.9126 12.6768C5.04421 12.8186 5.18105 12.9555 5.32311 13.0873L5.72957 12.6808C5.78399 12.6264 5.81457 12.5525 5.81457 12.4756C5.81457 12.3986 5.78399 12.3247 5.72957 12.2703Z" fill="#FFAA32"/>
<path d="M15.1734 2.82649C15.2278 2.88092 15.3017 2.91149 15.3786 2.91149C15.4556 2.91149 15.5295 2.88092 15.5839 2.82649L15.9903 2.42004C15.8587 2.27797 15.7219 2.14113 15.5798 2.00952L15.1734 2.41597C15.119 2.47042 15.0884 2.54425 15.0884 2.62123C15.0884 2.69821 15.119 2.77205 15.1734 2.82649Z" fill="#FFAA32"/>
<path d="M7.11291 13.3311C7.07987 13.312 7.04341 13.2997 7.0056 13.2947C6.96779 13.2897 6.92937 13.2923 6.89255 13.3022C6.85572 13.3121 6.8212 13.3291 6.79097 13.3524C6.76073 13.3756 6.73537 13.4046 6.71633 13.4376L6.4292 13.9355C6.59265 14.0386 6.76017 14.1361 6.93175 14.2258L7.21917 13.7279C7.23827 13.6949 7.25068 13.6584 7.25568 13.6206C7.26068 13.5828 7.25818 13.5443 7.24831 13.5075C7.23844 13.4706 7.2214 13.4361 7.19817 13.4058C7.17494 13.3755 7.14596 13.3501 7.11291 13.3311Z" fill="#FFAA32"/>
<path d="M13.7903 1.76587C13.8233 1.78492 13.8598 1.79727 13.8976 1.80223C13.9354 1.80718 13.9738 1.80464 14.0107 1.79475C14.0475 1.78485 14.082 1.7678 14.1122 1.74456C14.1425 1.72133 14.1678 1.69236 14.1869 1.65932L14.474 1.16142C14.3107 1.05826 14.1431 0.961481 13.9715 0.871094L13.684 1.369C13.6649 1.40203 13.6525 1.4385 13.6475 1.47633C13.6425 1.51416 13.645 1.5526 13.6549 1.58946C13.6648 1.62632 13.6818 1.66087 13.705 1.69114C13.7283 1.72141 13.7572 1.7468 13.7903 1.76587Z" fill="#FFAA32"/>
<path d="M8.72342 13.9982C8.68659 13.9883 8.64818 13.9858 8.61037 13.9908C8.57257 13.9957 8.53611 14.0081 8.50308 14.0272C8.47006 14.0462 8.44111 14.0716 8.41789 14.1018C8.39468 14.1321 8.37765 14.1666 8.36778 14.2035L8.21826 14.7606C8.40233 14.8186 8.59016 14.8657 8.77975 14.9086L8.92868 14.3538C8.93856 14.317 8.94109 14.2786 8.93612 14.2408C8.93115 14.203 8.91878 14.1665 8.89972 14.1335C8.88066 14.1005 8.85528 14.0715 8.82503 14.0483C8.79478 14.0251 8.76025 14.0081 8.72342 13.9982Z" fill="#FFAA32"/>
<path d="M12.1795 1.09868C12.2164 1.10856 12.2548 1.11109 12.2926 1.10612C12.3304 1.10115 12.3668 1.08878 12.3999 1.06972C12.4329 1.05066 12.4618 1.02528 12.4851 0.995034C12.5083 0.964784 12.5253 0.930258 12.5352 0.893426L12.6847 0.336297C12.5006 0.278232 12.3128 0.2312 12.1232 0.188232L11.9743 0.743039C11.9644 0.779868 11.9619 0.818283 11.9668 0.85609C11.9718 0.893896 11.9842 0.930353 12.0032 0.963379C12.0223 0.996405 12.0477 1.02535 12.0779 1.04857C12.1082 1.07178 12.1427 1.08881 12.1795 1.09868Z" fill="#FFAA32"/>
<path d="M15.668 10.0819C15.5733 8.05675 14.7261 6.13981 13.2924 4.70635C11.8587 3.27289 9.94157 2.42612 7.91635 2.33179C7.08371 2.73542 6.35969 3.33237 5.80472 4.0728C5.24976 4.81323 4.87996 5.67566 4.72618 6.58812C4.57241 7.50057 4.63912 8.43657 4.92075 9.318C5.20238 10.1994 5.69075 11.0007 6.34512 11.6549C6.99948 12.3092 7.80084 12.7974 8.68232 13.0789C9.56379 13.3603 10.4998 13.4269 11.4122 13.2729C12.3247 13.119 13.187 12.749 13.9274 12.1939C14.6677 11.6388 15.2645 10.9147 15.668 10.0819Z" fill="#FF9C28"/>
<path d="M15.0896 10.1612C15.0719 9.69617 15.0114 9.23376 14.9087 8.77985L14.5162 8.72353L14.7606 8.21837C14.6228 7.77376 14.4438 7.34299 14.2259 6.93166L13.9355 6.67734V6.42911C13.6873 6.03555 13.4033 5.66567 13.0872 5.32414L12.7743 5.22572L12.6758 4.91363C12.3343 4.59726 11.9645 4.313 11.5709 4.06443H11.3226L11.0683 3.77411C10.657 3.55621 10.2262 3.37718 9.78161 3.23934L9.29039 3.48379L9.22013 3.09127C8.76622 2.98861 8.30381 2.92806 7.83878 2.9104L7.54845 3.19346L7.25813 2.9104C6.79309 2.92806 6.33068 2.98861 5.87678 3.09127L5.80652 3.48379L5.31529 3.23934C4.87069 3.37718 4.43992 3.55621 4.02858 3.77411L3.77426 4.06443H3.52603C3.13247 4.31272 2.76259 4.59669 2.42107 4.91276L2.32265 5.22572L2.01055 5.32414C1.69419 5.66563 1.40992 6.03551 1.16136 6.42911V6.67734L0.871034 6.93166C0.653138 7.34299 0.474104 7.77376 0.33626 8.21837L0.580711 8.72353L0.188195 8.77985C0.0855319 9.23376 0.0249848 9.69617 0.00732422 10.1612L0.290389 10.4515L0.00732422 10.7419C0.0249848 11.2069 0.0855319 11.6693 0.188195 12.1232L0.580711 12.1795L0.33626 12.6847C0.474104 13.1293 0.653138 13.5601 0.871034 13.9714L1.16136 14.2257V14.4739C1.40965 14.8675 1.69362 15.2374 2.00968 15.5789L2.32265 15.6773L2.42107 15.9894C2.76256 16.3058 3.13244 16.5901 3.52603 16.8386L4.06458 16.5483L4.02858 17.1289C4.43992 17.3468 4.87069 17.5259 5.31529 17.6637L5.80652 17.4193L5.87678 17.8118C6.33068 17.9145 6.79309 17.975 7.25813 17.9927L7.54845 17.7096L7.83878 17.9927C8.30381 17.975 8.76622 17.9145 9.22013 17.8118L9.29039 17.4193L9.78161 17.6637C10.2262 17.5259 10.657 17.3468 11.0683 17.1289L11.3226 16.8386H11.5709C11.9644 16.5903 12.3343 16.3064 12.6758 15.9903L12.7743 15.6773L13.0864 15.5789C13.4027 15.2374 13.687 14.8675 13.9355 14.4739V14.2257L14.2259 13.9714C14.4438 13.5601 14.6228 13.1293 14.7606 12.6847L14.5162 12.1935L14.9087 12.1232C15.0114 11.6693 15.0719 11.2069 15.0896 10.7419L14.8065 10.4515L15.0896 10.1612Z" fill="#FFC864"/>
<path d="M7.54864 16.2582C10.7555 16.2582 13.3551 13.6585 13.3551 10.4517C13.3551 7.2449 10.7555 4.64526 7.54864 4.64526C4.34182 4.64526 1.74219 7.2449 1.74219 10.4517C1.74219 13.6585 4.34182 16.2582 7.54864 16.2582Z" fill="#FFAA32"/>
<path d="M2.32283 11.0324C2.32123 9.91887 2.6403 8.82848 3.24189 7.8915C3.84348 6.95451 4.70215 6.21058 5.71527 5.7486C6.7284 5.28662 7.85312 5.12613 8.95502 5.28633C10.0569 5.44653 11.0894 5.92063 11.929 6.65197C11.4078 6.04902 10.7679 5.55997 10.0492 5.21537C9.33051 4.87076 8.54852 4.67799 7.75202 4.64908C6.95553 4.62017 6.16162 4.75575 5.41986 5.04735C4.67809 5.33895 4.0044 5.78031 3.44082 6.34389C2.87724 6.90747 2.43587 7.58117 2.14427 8.32293C1.85267 9.06469 1.7171 9.8586 1.746 10.6551C1.77491 11.4516 1.96769 12.2336 2.31229 12.9523C2.6569 13.6709 3.14594 14.3109 3.74889 14.8321C2.82967 13.7797 2.32303 12.4297 2.32283 11.0324Z" fill="#FF9C28"/>
<path d="M7.54814 3.77429C7.62513 3.77429 7.69898 3.7437 7.75342 3.68925C7.80787 3.63481 7.83846 3.56096 7.83846 3.48397V2.91058C7.74207 2.90709 7.64539 2.90332 7.54814 2.90332C7.45088 2.90332 7.3542 2.90709 7.25781 2.91058V3.48397C7.25781 3.56096 7.2884 3.63481 7.34285 3.68925C7.39729 3.7437 7.47114 3.77429 7.54814 3.77429Z" fill="#FFAA32"/>
<path d="M7.54814 17.1289C7.47114 17.1289 7.39729 17.1595 7.34285 17.2139C7.2884 17.2684 7.25781 17.3422 7.25781 17.4192V17.9926C7.3542 17.9961 7.45088 17.9999 7.54814 17.9999C7.64539 17.9999 7.74207 17.9961 7.83846 17.9926V17.4192C7.83846 17.3422 7.80787 17.2684 7.75342 17.2139C7.69898 17.1595 7.62513 17.1289 7.54814 17.1289Z" fill="#FFAA32"/>
<path d="M5.82059 4.00176C5.85742 3.99189 5.89195 3.97486 5.9222 3.95164C5.95245 3.92843 5.97783 3.89948 5.99689 3.86646C6.01595 3.83343 6.02832 3.79697 6.03329 3.75917C6.03826 3.72136 6.03573 3.68294 6.02585 3.64612L5.87691 3.09131C5.68733 3.13428 5.49949 3.18247 5.31543 3.23937L5.46495 3.7965C5.47482 3.83333 5.49185 3.86786 5.51506 3.89811C5.53828 3.92836 5.56722 3.95374 5.60025 3.9728C5.63328 3.99186 5.66973 4.00423 5.70754 4.0092C5.74535 4.01417 5.78376 4.01164 5.82059 4.00176Z" fill="#FFAA32"/>
<path d="M9.27621 16.9015C9.23937 16.9114 9.20485 16.9284 9.1746 16.9516C9.14435 16.9748 9.11897 17.0038 9.09991 17.0368C9.08085 17.0698 9.06848 17.1063 9.06351 17.1441C9.05854 17.1819 9.06107 17.2203 9.07095 17.2572L9.21988 17.812C9.40946 17.769 9.5973 17.7208 9.78137 17.6639L9.63185 17.1068C9.62198 17.0699 9.60495 17.0354 9.58174 17.0052C9.55852 16.9749 9.52957 16.9495 9.49655 16.9305C9.46352 16.9114 9.42706 16.899 9.38926 16.8941C9.35145 16.8891 9.31304 16.8916 9.27621 16.9015Z" fill="#FFAA32"/>
<path d="M4.20959 4.66894C4.24264 4.64988 4.27162 4.62449 4.29485 4.59422C4.31808 4.56395 4.33512 4.5294 4.34499 4.49254C4.35486 4.45568 4.35736 4.41723 4.35236 4.3794C4.34736 4.34157 4.33495 4.3051 4.31585 4.27207L4.02843 3.77417C3.85694 3.86514 3.68943 3.96191 3.52588 4.06449L3.81301 4.56152C3.83197 4.59464 3.85728 4.62369 3.88749 4.64701C3.91769 4.67033 3.9522 4.68747 3.98903 4.69745C4.02586 4.70743 4.0643 4.71005 4.10215 4.70515C4.13999 4.70026 4.1765 4.68796 4.20959 4.66894Z" fill="#FFAA32"/>
<path d="M10.887 16.2342C10.8539 16.2532 10.825 16.2786 10.8017 16.3089C10.7785 16.3392 10.7614 16.3737 10.7516 16.4106C10.7417 16.4474 10.7392 16.4859 10.7442 16.5237C10.7492 16.5615 10.7616 16.598 10.7807 16.631L11.0681 17.1289C11.2397 17.0384 11.4072 16.9408 11.5707 16.8386L11.2836 16.3416C11.2646 16.3085 11.2393 16.2794 11.2091 16.2561C11.1789 16.2328 11.1444 16.2156 11.1075 16.2057C11.0707 16.1957 11.0323 16.1931 10.9944 16.198C10.9566 16.2028 10.9201 16.2151 10.887 16.2342Z" fill="#FFAA32"/>
<path d="M2.82673 5.72981C2.88116 5.67537 2.91174 5.60153 2.91174 5.52455C2.91174 5.44757 2.88116 5.37374 2.82673 5.31929L2.42028 4.91284C2.27822 5.04445 2.14138 5.18129 2.00977 5.32336L2.41622 5.72981C2.47066 5.78424 2.54449 5.81481 2.62148 5.81481C2.69846 5.81481 2.77229 5.78424 2.82673 5.72981Z" fill="#FFAA32"/>
<path d="M12.2701 15.1734C12.2156 15.2278 12.1851 15.3017 12.1851 15.3786C12.1851 15.4556 12.2156 15.5295 12.2701 15.5839L12.6765 15.9903C12.8184 15.8587 12.9552 15.7219 13.087 15.5798L12.6806 15.1734C12.6261 15.119 12.5523 15.0884 12.4753 15.0884C12.3983 15.0884 12.3245 15.119 12.2701 15.1734Z" fill="#FFAA32"/>
<path d="M1.76587 7.11291C1.78492 7.07987 1.79727 7.04341 1.80223 7.0056C1.80718 6.96779 1.80464 6.92937 1.79475 6.89255C1.78485 6.85572 1.7678 6.8212 1.74456 6.79097C1.72133 6.76073 1.69236 6.73537 1.65932 6.71633L1.16142 6.4292C1.05826 6.59275 0.961481 6.76026 0.871094 6.93175L1.369 7.21917C1.40203 7.23827 1.4385 7.25068 1.47633 7.25568C1.51416 7.26068 1.5526 7.25818 1.58946 7.24831C1.62632 7.23844 1.66087 7.2214 1.69114 7.19817C1.72141 7.17494 1.7468 7.14596 1.76587 7.11291Z" fill="#FFAA32"/>
<path d="M13.3308 13.7903C13.3118 13.8233 13.2994 13.8598 13.2945 13.8976C13.2895 13.9354 13.292 13.9738 13.3019 14.0107C13.3118 14.0475 13.3289 14.082 13.3521 14.1122C13.3754 14.1425 13.4043 14.1678 13.4374 14.1869L13.9353 14.474C14.0383 14.3106 14.1359 14.143 14.2256 13.9715L13.7277 13.684C13.6947 13.6649 13.6582 13.6525 13.6204 13.6475C13.5825 13.6425 13.5441 13.645 13.5072 13.6549C13.4704 13.6648 13.4358 13.6818 13.4055 13.705C13.3753 13.7283 13.3499 13.7572 13.3308 13.7903Z" fill="#FFAA32"/>
<path d="M1.09844 8.72367C1.10832 8.68684 1.11085 8.64842 1.10588 8.61062C1.10091 8.57281 1.08854 8.53635 1.06948 8.50333C1.05042 8.4703 1.02504 8.44135 0.99479 8.41814C0.96454 8.39492 0.930014 8.37789 0.893182 8.36802L0.336053 8.21851C0.277988 8.40257 0.230956 8.59041 0.187988 8.77999L0.742795 8.92892C0.779624 8.9388 0.818039 8.94133 0.855845 8.93636C0.893652 8.93139 0.930109 8.91903 0.963135 8.89996C0.996161 8.8809 1.02511 8.85552 1.04832 8.82528C1.07154 8.79503 1.08857 8.7605 1.09844 8.72367Z" fill="#FFAA32"/>
<path d="M13.9982 12.1795C13.9883 12.2164 13.9858 12.2548 13.9908 12.2926C13.9957 12.3304 14.0081 12.3668 14.0272 12.3999C14.0462 12.4329 14.0716 12.4618 14.1018 12.4851C14.1321 12.5083 14.1666 12.5253 14.2035 12.5352L14.7606 12.6847C14.8186 12.5006 14.8657 12.3128 14.9086 12.1232L14.3538 11.9743C14.317 11.9644 14.2786 11.9619 14.2408 11.9668C14.203 11.9718 14.1665 11.9842 14.1335 12.0032C14.1005 12.0223 14.0715 12.0477 14.0483 12.0779C14.0251 12.1082 14.0081 12.1427 13.9982 12.1795Z" fill="#FFAA32"/>
<path d="M0.870968 10.4517C0.870968 10.3747 0.84038 10.3009 0.785934 10.2464C0.731488 10.192 0.657643 10.1614 0.580645 10.1614H0.00725806C0.00377419 10.2578 0 10.3544 0 10.4517C0 10.549 0.00377419 10.6456 0.00725806 10.742H0.580645C0.657643 10.742 0.731488 10.7114 0.785934 10.657C0.84038 10.6025 0.870968 10.5287 0.870968 10.4517Z" fill="#FFAA32"/>
<path d="M14.2256 10.4517C14.2256 10.5287 14.2562 10.6025 14.3106 10.657C14.3651 10.7114 14.4389 10.742 14.5159 10.742H15.0893C15.0928 10.6456 15.0966 10.549 15.0966 10.4517C15.0966 10.3544 15.0928 10.2578 15.0893 10.1614H14.5159C14.4389 10.1614 14.3651 10.192 14.3106 10.2464C14.2562 10.3009 14.2256 10.3747 14.2256 10.4517Z" fill="#FFAA32"/>
<path d="M1.09844 12.1795C1.08857 12.1427 1.07154 12.1082 1.04832 12.0779C1.02511 12.0477 0.996161 12.0223 0.963135 12.0032C0.930109 11.9842 0.893652 11.9718 0.855845 11.9668C0.818039 11.9619 0.779624 11.9644 0.742795 11.9743L0.187988 12.1232C0.230956 12.3128 0.27915 12.5006 0.336053 12.6847L0.893182 12.5352C0.930014 12.5253 0.96454 12.5083 0.99479 12.4851C1.02504 12.4618 1.05042 12.4329 1.06948 12.3999C1.08854 12.3668 1.10091 12.3304 1.10588 12.2926C1.11085 12.2548 1.10832 12.2164 1.09844 12.1795Z" fill="#FFAA32"/>
<path d="M13.9982 8.72367C14.0081 8.7605 14.0251 8.79503 14.0483 8.82528C14.0715 8.85552 14.1005 8.8809 14.1335 8.89996C14.1665 8.91903 14.203 8.93139 14.2408 8.93636C14.2786 8.94133 14.317 8.9388 14.3538 8.92892L14.9086 8.77999C14.8657 8.59041 14.8175 8.40257 14.7606 8.21851L14.2035 8.36802C14.1666 8.37789 14.1321 8.39492 14.1018 8.41814C14.0716 8.44135 14.0462 8.4703 14.0272 8.50333C14.0081 8.53635 13.9957 8.57281 13.9908 8.61062C13.9858 8.64842 13.9883 8.68684 13.9982 8.72367Z" fill="#FFAA32"/>
<path d="M1.76587 13.7903C1.7468 13.7572 1.72141 13.7283 1.69114 13.705C1.66087 13.6818 1.62632 13.6648 1.58946 13.6549C1.5526 13.645 1.51416 13.6425 1.47633 13.6475C1.4385 13.6525 1.40203 13.6649 1.369 13.684L0.871094 13.9715C0.962061 14.1431 1.05884 14.3107 1.16142 14.474L1.65845 14.1869C1.69156 14.1679 1.72061 14.1426 1.74393 14.1124C1.76726 14.0822 1.7844 14.0477 1.79438 14.0109C1.80435 13.974 1.80697 13.9356 1.80208 13.8977C1.79719 13.8599 1.78488 13.8234 1.76587 13.7903Z" fill="#FFAA32"/>
<path d="M13.3311 7.11291C13.3501 7.14596 13.3755 7.17494 13.4058 7.19817C13.4361 7.2214 13.4706 7.23844 13.5075 7.24831C13.5444 7.25818 13.5828 7.26068 13.6206 7.25568C13.6585 7.25068 13.6949 7.23827 13.728 7.21917L14.2259 6.93175C14.1353 6.76017 14.0377 6.59265 13.9355 6.4292L13.4385 6.71633C13.4054 6.7353 13.3763 6.7606 13.353 6.79081C13.3297 6.82101 13.3126 6.85552 13.3026 6.89235C13.2926 6.92918 13.29 6.96762 13.2949 7.00547C13.2998 7.04331 13.3121 7.07982 13.3311 7.11291Z" fill="#FFAA32"/>
<path d="M2.82673 15.1734C2.77229 15.119 2.69846 15.0884 2.62148 15.0884C2.54449 15.0884 2.47066 15.119 2.41622 15.1734L2.00977 15.5798C2.14138 15.7217 2.27822 15.8585 2.42028 15.9903L2.82673 15.5839C2.88116 15.5295 2.91174 15.4556 2.91174 15.3786C2.91174 15.3017 2.88116 15.2278 2.82673 15.1734Z" fill="#FFAA32"/>
<path d="M12.2701 5.72981C12.3245 5.78424 12.3983 5.81481 12.4753 5.81481C12.5523 5.81481 12.6261 5.78424 12.6806 5.72981L13.087 5.32336C12.9554 5.18149 12.8186 5.04465 12.6765 4.91284L12.2701 5.31929C12.2156 5.37374 12.1851 5.44757 12.1851 5.52455C12.1851 5.60153 12.2156 5.67537 12.2701 5.72981Z" fill="#FFAA32"/>
<path d="M4.20959 16.2341C4.17655 16.2151 4.14009 16.2027 4.10228 16.1978C4.06447 16.1928 4.02605 16.1954 3.98923 16.2053C3.9524 16.2151 3.91788 16.2322 3.88765 16.2554C3.85741 16.2787 3.83205 16.3076 3.81301 16.3407L3.52588 16.8386C3.68933 16.9417 3.85685 17.0392 4.02843 17.1289L4.31585 16.631C4.33495 16.598 4.34736 16.5615 4.35236 16.5237C4.35736 16.4858 4.35486 16.4474 4.34499 16.4105C4.33512 16.3737 4.31808 16.3391 4.29485 16.3089C4.27162 16.2786 4.24264 16.2532 4.20959 16.2341Z" fill="#FFAA32"/>
<path d="M10.887 4.66894C10.92 4.68799 10.9565 4.70035 10.9943 4.7053C11.0321 4.71026 11.0705 4.70772 11.1073 4.69782C11.1442 4.68793 11.1787 4.67088 11.2089 4.64764C11.2392 4.6244 11.2645 4.59544 11.2836 4.5624L11.5707 4.06449C11.4073 3.96133 11.2398 3.86456 11.0681 3.77417L10.7807 4.27207C10.7616 4.3051 10.7492 4.34157 10.7442 4.3794C10.7392 4.41723 10.7417 4.45568 10.7516 4.49254C10.7614 4.5294 10.7785 4.56395 10.8017 4.59422C10.825 4.62449 10.8539 4.64988 10.887 4.66894Z" fill="#FFAA32"/>
<path d="M5.82059 16.9015C5.78376 16.8916 5.74535 16.8891 5.70754 16.8941C5.66973 16.899 5.63328 16.9114 5.60025 16.9305C5.56722 16.9495 5.53828 16.9749 5.51506 17.0052C5.49185 17.0354 5.47482 17.0699 5.46495 17.1068L5.31543 17.6639C5.49949 17.722 5.68733 17.769 5.87691 17.812L6.02585 17.2572C6.03573 17.2203 6.03826 17.1819 6.03329 17.1441C6.02832 17.1063 6.01595 17.0698 5.99689 17.0368C5.97783 17.0038 5.95245 16.9748 5.9222 16.9516C5.89195 16.9284 5.85742 16.9114 5.82059 16.9015Z" fill="#FFAA32"/>
<path d="M9.27621 4.00176C9.31304 4.01164 9.35145 4.01417 9.38926 4.0092C9.42706 4.00423 9.46352 3.99186 9.49655 3.9728C9.52957 3.95374 9.55852 3.92836 9.58174 3.89811C9.60495 3.86786 9.62198 3.83333 9.63185 3.7965L9.78137 3.23937C9.5973 3.18131 9.40946 3.13428 9.21988 3.09131L9.07095 3.64612C9.06107 3.68294 9.05854 3.72136 9.06351 3.75917C9.06848 3.79697 9.08085 3.83343 9.09991 3.86646C9.11897 3.89948 9.14435 3.92843 9.1746 3.95164C9.20485 3.97486 9.23937 3.99189 9.27621 4.00176Z" fill="#FFAA32"/>
<path d="M7.5483 6.90723L8.58591 9.00974L10.9062 9.34681L9.22724 10.9834L9.62353 13.2943L7.5483 12.2033L5.47307 13.2943L5.86936 10.9834L4.19043 9.34681L6.51069 9.00974L7.5483 6.90723Z" fill="#FFC864"/>
</svg>
