<svg width="24" height="24" viewBox="0 0 24 24" fill="none" xmlns="http://www.w3.org/2000/svg">
<path d="M12 3C12.1591 3 12.3117 3.06321 12.4243 3.17574C12.5368 3.28826 12.6 3.44087 12.6 3.6V11.4H20.4C20.5591 11.4 20.7117 11.4632 20.8243 11.5757C20.9368 11.6883 21 11.8409 21 12C21 12.1591 20.9368 12.3117 20.8243 12.4243C20.7117 12.5368 20.5591 12.6 20.4 12.6H12.6V20.4C12.6 20.5591 12.5368 20.7117 12.4243 20.8243C12.3117 20.9368 12.1591 21 12 21C11.8409 21 11.6883 20.9368 11.5757 20.8243C11.4632 20.7117 11.4 20.5591 11.4 20.4V12.6H3.6C3.44087 12.6 3.28826 12.5368 3.17574 12.4243C3.06321 12.3117 3 12.1591 3 12C3 11.8409 3.06321 11.6883 3.17574 11.5757C3.28826 11.4632 3.44087 11.4 3.6 11.4H11.4V3.6C11.4 3.44087 11.4632 3.28826 11.5757 3.17574C11.6883 3.06321 11.8409 3 12 3Z" fill="#949494"/>
</svg>
