<svg width="30" height="30" viewBox="0 0 30 30" fill="none" xmlns="http://www.w3.org/2000/svg">
<path d="M25.3125 8.75122H4.6875C4.16973 8.75122 3.75 9.17095 3.75 9.68872C3.75 10.2065 4.16973 10.6262 4.6875 10.6262H25.3125C25.8303 10.6262 26.25 10.2065 26.25 9.68872C26.25 9.17095 25.8303 8.75122 25.3125 8.75122Z" fill="black"/>
<path d="M21.5625 14.0637H4.6875C4.16973 14.0637 3.75 14.4835 3.75 15.0012C3.75 15.519 4.16973 15.9387 4.6875 15.9387H21.5625C22.0803 15.9387 22.5 15.519 22.5 15.0012C22.5 14.4835 22.0803 14.0637 21.5625 14.0637Z" fill="black"/>
<path d="M25.3125 19.3738H4.6875C4.16973 19.3738 3.75 19.7935 3.75 20.3113C3.75 20.829 4.16973 21.2488 4.6875 21.2488H25.3125C25.8303 21.2488 26.25 20.829 26.25 20.3113C26.25 19.7935 25.8303 19.3738 25.3125 19.3738Z" fill="black"/>
</svg>
