<svg width="18" height="18" viewBox="0 0 18 18" fill="none" xmlns="http://www.w3.org/2000/svg">
<path d="M14.625 4.125L14.16 11.6437C14.0415 13.5645 13.9823 14.5253 13.5 15.216C13.2619 15.5574 12.9554 15.8455 12.6 16.062C11.8822 16.5 10.92 16.5 8.9955 16.5C7.068 16.5 6.10425 16.5 5.385 16.0613C5.02942 15.8443 4.72291 15.5557 4.485 15.2137C4.0035 14.5222 3.945 13.56 3.8295 11.6363L3.375 4.125M2.25 4.125H15.75M12.042 4.125L11.5298 3.069C11.19 2.367 11.0198 2.01675 10.7265 1.79775C10.6614 1.74924 10.5924 1.70609 10.5203 1.66875C10.1955 1.5 9.8055 1.5 9.02625 1.5C8.22675 1.5 7.827 1.5 7.49625 1.6755C7.42314 1.71466 7.3534 1.75981 7.28775 1.8105C6.9915 2.03775 6.82575 2.4015 6.49425 3.12825L6.03975 4.125" stroke="black" stroke-linecap="round"/>
</svg>
