<svg width="18" height="18" viewBox="0 0 18 18" fill="none" xmlns="http://www.w3.org/2000/svg">
<path d="M14.625 9C14.625 8.85082 14.6843 8.70774 14.7898 8.60225C14.8952 8.49676 15.0383 8.4375 15.1875 8.4375C15.3367 8.4375 15.4798 8.49676 15.5852 8.60225C15.6907 8.70774 15.75 8.85082 15.75 9V15.1875C15.75 15.3367 15.6907 15.4798 15.5852 15.5852C15.4798 15.6907 15.3367 15.75 15.1875 15.75H2.8125C2.66332 15.75 2.52024 15.6907 2.41475 15.5852C2.30926 15.4798 2.25 15.3367 2.25 15.1875V2.8125C2.25 2.66332 2.30926 2.52024 2.41475 2.41475C2.52024 2.30926 2.66332 2.25 2.8125 2.25H9C9.14918 2.25 9.29226 2.30926 9.39775 2.41475C9.50324 2.52024 9.5625 2.66332 9.5625 2.8125C9.5625 2.96168 9.50324 3.10476 9.39775 3.21025C9.29226 3.31574 9.14918 3.375 9 3.375H3.375V14.625H14.625V9Z" fill="black"/>
<path d="M8.26086 9.74217L9.18898 9.60942L14.8905 3.90905C14.9442 3.85716 14.9871 3.79509 15.0165 3.72646C15.046 3.65783 15.0615 3.58402 15.0622 3.50933C15.0628 3.43465 15.0486 3.36058 15.0203 3.29145C14.992 3.22232 14.9503 3.15951 14.8975 3.1067C14.8446 3.05388 14.7818 3.01212 14.7127 2.98383C14.6436 2.95555 14.5695 2.94132 14.4948 2.94197C14.4201 2.94262 14.3463 2.95813 14.2777 2.98761C14.2091 3.01709 14.147 3.05995 14.0951 3.11367L8.39248 8.81405L8.25973 9.74217H8.26086ZM15.6859 2.31717C15.8427 2.47388 15.9671 2.65996 16.0519 2.86477C16.1368 3.06958 16.1805 3.2891 16.1805 3.5108C16.1805 3.73249 16.1368 3.95202 16.0519 4.15682C15.9671 4.36163 15.8427 4.54771 15.6859 4.70442L9.85273 10.5375C9.76672 10.6239 9.65499 10.6799 9.53436 10.6973L7.67811 10.9628C7.5916 10.9752 7.50339 10.9673 7.42046 10.9397C7.33754 10.9121 7.2622 10.8656 7.2004 10.8038C7.1386 10.742 7.09205 10.6666 7.06444 10.5837C7.03684 10.5008 7.02893 10.4126 7.04136 10.326L7.30686 8.4698C7.3239 8.34931 7.37956 8.23759 7.46548 8.15142L13.2997 2.3183C13.6162 2.00194 14.0453 1.82422 14.4928 1.82422C14.9403 1.82422 15.3694 2.00194 15.6859 2.3183V2.31717Z" fill="black"/>
</svg>
