<svg width="16" height="10" viewBox="0 0 16 10" fill="none" xmlns="http://www.w3.org/2000/svg">
<path d="M1.25 5.75C3.95 -0.25 12.05 -0.25 14.75 5.75" stroke="black" stroke-width="1.5" stroke-linecap="round" stroke-linejoin="round"/>
<path d="M8 8.75C7.70453 8.75 7.41194 8.6918 7.13896 8.57873C6.86598 8.46566 6.61794 8.29992 6.40901 8.09099C6.20008 7.88206 6.03434 7.63402 5.92127 7.36104C5.8082 7.08806 5.75 6.79547 5.75 6.5C5.75 6.20453 5.8082 5.91194 5.92127 5.63896C6.03434 5.36598 6.20008 5.11794 6.40901 4.90901C6.61794 4.70008 6.86598 4.53434 7.13896 4.42127C7.41194 4.3082 7.70453 4.25 8 4.25C8.59674 4.25 9.16903 4.48705 9.59099 4.90901C10.0129 5.33097 10.25 5.90326 10.25 6.5C10.25 7.09674 10.0129 7.66903 9.59099 8.09099C9.16903 8.51295 8.59674 8.75 8 8.75Z" stroke="black" stroke-width="1.5" stroke-linecap="round" stroke-linejoin="round"/>
</svg>
