<svg width="16" height="20" viewBox="0 0 16 20" fill="none" xmlns="http://www.w3.org/2000/svg">
<path d="M14.8301 0.250059C13.5548 0.687668 12.4481 1.51274 11.6646 2.60998C10.8811 3.70721 10.46 5.02181 10.4601 6.37006V9.52006C10.4611 9.99182 10.649 10.444 10.9826 10.7775C11.3162 11.1111 11.7683 11.299 12.2401 11.3001H14.9401V19.4401C14.9401 19.5727 14.9927 19.6998 15.0865 19.7936C15.1803 19.8874 15.3075 19.9401 15.4401 19.9401C15.5719 19.9375 15.6976 19.884 15.7908 19.7908C15.884 19.6976 15.9375 19.5719 15.9401 19.4401V0.560059C15.9375 0.428252 15.884 0.302557 15.7908 0.209338C15.6976 0.116119 15.5719 0.0626187 15.4401 0.0600586C15.3821 0.0601268 15.3246 0.070278 15.2701 0.0900586L14.8301 0.250059ZM12.2401 10.3001C12.0332 10.3001 11.8348 10.2179 11.6885 10.0716C11.5422 9.92532 11.4601 9.72693 11.4601 9.52006V6.37006C11.4605 5.26872 11.7927 4.19305 12.4135 3.28332C13.0342 2.37359 13.9147 1.67201 14.9401 1.27006V10.3001H12.2401ZM7.44006 0.0700586C7.30745 0.0700586 7.18027 0.122737 7.08651 0.216505C6.99274 0.310273 6.94006 0.43745 6.94006 0.570059V5.55006H4.50006V0.570059C4.50006 0.43745 4.44738 0.310273 4.35361 0.216505C4.25984 0.122737 4.13267 0.0700586 4.00006 0.0700586C3.86745 0.0700586 3.74027 0.122737 3.64651 0.216505C3.55274 0.310273 3.50006 0.43745 3.50006 0.570059V5.55006H1.06006V0.570059C1.06006 0.43745 1.00738 0.310273 0.913612 0.216505C0.819844 0.122737 0.692667 0.0700586 0.560059 0.0700586C0.42745 0.0700586 0.300273 0.122737 0.206505 0.216505C0.112737 0.310273 0.0600586 0.43745 0.0600586 0.570059V7.05006C0.0619058 7.71253 0.325891 8.34734 0.794332 8.81578C1.26277 9.28423 1.89759 9.54821 2.56006 9.55006H3.50006V19.4401C3.50262 19.5719 3.55612 19.6976 3.64934 19.7908C3.74256 19.884 3.86825 19.9375 4.00006 19.9401C4.13267 19.9401 4.25984 19.8874 4.35361 19.7936C4.44738 19.6998 4.50006 19.5727 4.50006 19.4401V9.55006H5.44006C6.1031 9.55006 6.73898 9.28667 7.20783 8.81783C7.67667 8.34898 7.94006 7.7131 7.94006 7.05006V0.570059C7.94006 0.43745 7.88738 0.310273 7.79361 0.216505C7.69984 0.122737 7.57267 0.0700586 7.44006 0.0700586ZM6.94006 7.05006C6.94006 7.44788 6.78202 7.82942 6.50072 8.11072C6.21941 8.39202 5.83788 8.55006 5.44006 8.55006H2.56006C2.16304 8.54744 1.78303 8.38856 1.50229 8.10782C1.22156 7.82708 1.06268 7.44707 1.06006 7.05006V6.55006H6.94006V7.05006Z" fill="#138808"/>
</svg>
