<svg width="18" height="14" viewBox="0 0 18 14" fill="none" xmlns="http://www.w3.org/2000/svg">
<path d="M1.616 14C1.15533 14 0.771 13.846 0.463 13.538C0.155 13.23 0.000666667 12.8453 0 12.384V1.616C0 1.15533 0.154333 0.771 0.463 0.463C0.771667 0.155 1.15567 0.000666667 1.615 0H16.385C16.845 0 17.229 0.154333 17.537 0.463C17.845 0.771667 17.9993 1.156 18 1.616V12.385C18 12.845 17.8457 13.2293 17.537 13.538C17.2283 13.8467 16.8443 14.0007 16.385 14H1.616ZM17 1.885L9.448 6.829C9.37733 6.86567 9.306 6.89667 9.234 6.922C9.16133 6.94667 9.08333 6.959 9 6.959C8.91667 6.959 8.83867 6.94667 8.766 6.922C8.69333 6.89733 8.622 6.86633 8.552 6.829L1 1.884V12.384C1 12.564 1.05767 12.7117 1.173 12.827C1.28833 12.9423 1.436 13 1.616 13H16.385C16.5643 13 16.7117 12.9423 16.827 12.827C16.9423 12.7117 17 12.564 17 12.384V1.885ZM9 6L16.692 1H1.308L9 6ZM1 2.096V1.285V1.319V1V1.32V1.268V2.096Z" fill="black"/>
</svg>
