<svg width="18" height="18" viewBox="0 0 18 18" fill="none" xmlns="http://www.w3.org/2000/svg">
<path d="M15.438 1.95395H13.5V0.545947C13.5 0.283947 13.27 0.0339475 13 0.0459475C12.8682 0.0485076 12.7425 0.102008 12.6493 0.195227C12.5561 0.288446 12.5026 0.414141 12.5 0.545947V1.95395H5.50001V0.545947C5.50001 0.283947 5.27001 0.0339475 5.00001 0.0459475C4.8682 0.0485076 4.74251 0.102008 4.64929 0.195227C4.55607 0.288446 4.50257 0.414141 4.50001 0.545947V1.95395H2.56201C1.89921 1.95474 1.26379 2.21839 0.795122 2.68706C0.326453 3.15573 0.0628056 3.79115 0.0620117 4.45395V15.4539C0.0620117 16.8329 1.18401 17.9539 2.56201 17.9539H15.437C16.816 17.9539 17.937 16.8329 17.937 15.4539V4.45395C17.937 3.79108 17.6738 3.15535 17.2051 2.68653C16.7365 2.21772 16.1009 1.95421 15.438 1.95395ZM2.56201 2.95395H4.50001V3.54595C4.50001 3.80795 4.73001 4.05795 5.00001 4.04595C5.27101 4.03395 5.50001 3.82595 5.50001 3.54595V2.95395H12.5V3.54595C12.5 3.80795 12.73 4.05795 13 4.04595C13.271 4.03395 13.5 3.82595 13.5 3.54595V2.95395H15.437C16.264 2.95395 16.937 3.62695 16.937 4.45395V6.03795H1.06201V4.45395C1.06201 3.62695 1.73501 2.95395 2.56201 2.95395ZM15.438 16.9539H2.56201C1.73501 16.9539 1.06201 16.2809 1.06201 15.4539V7.03795H16.937V15.4539C16.937 15.8516 16.7791 16.233 16.498 16.5143C16.2169 16.7955 15.8357 16.9537 15.438 16.9539Z" fill="#FF0000"/>
</svg>
