<svg width="18" height="16" viewBox="0 0 18 16" fill="none" xmlns="http://www.w3.org/2000/svg">
<path d="M12.9999 4.616V1.616H4.9999V4.616H3.9999V0.615997H13.9999V4.616H12.9999ZM14.6149 8.116C14.8982 8.116 15.1359 8.02 15.3279 7.828C15.5199 7.636 15.6156 7.39866 15.6149 7.116C15.6142 6.83333 15.5186 6.59566 15.3279 6.403C15.1372 6.21033 14.8996 6.11433 14.6149 6.115C14.3302 6.11566 14.0929 6.21166 13.9029 6.403C13.7129 6.59433 13.6169 6.832 13.6149 7.116C13.6129 7.4 13.7089 7.63733 13.9029 7.828C14.0969 8.01866 14.3336 8.11466 14.6149 8.116ZM12.9999 15V10.462H4.9999V15H12.9999ZM13.9999 16H3.9999V12H0.576904V6.616C0.576904 6.04933 0.769238 5.57433 1.1539 5.191C1.53857 4.80766 2.0129 4.61566 2.5769 4.615H15.4229C15.9896 4.615 16.4646 4.807 16.8479 5.191C17.2312 5.575 17.4229 6.04966 17.4229 6.615V12H13.9999V16ZM16.4229 11V6.616C16.4229 6.33266 16.3272 6.095 16.1359 5.903C15.9446 5.711 15.7069 5.615 15.4229 5.615H2.5769C2.29357 5.615 2.05624 5.711 1.8649 5.903C1.67357 6.095 1.57757 6.33266 1.5769 6.616V11H3.9999V9.462H13.9999V11H16.4229Z" fill="black"/>
</svg>
