<svg width="16" height="16" viewBox="0 0 16 16" fill="none" xmlns="http://www.w3.org/2000/svg">
<path d="M10.5792 15H6.89498C4.11635 15 2.72667 15 1.86382 14.1364C1.00098 13.2728 1.00024 11.8839 1.00024 9.10526V3.94737M1.00024 3.94737H15.0002M1.00024 3.94737L1.44235 3.35789C2.31035 2.20105 2.74435 1.62263 3.36624 1.31095C3.98888 1 4.71172 1 6.15814 1H9.84235C11.2888 1 12.0116 1 12.6342 1.31095C13.2561 1.62263 13.6901 2.20105 14.5581 3.35789L15.0002 3.94737M15.0002 3.94737V9.10526" stroke="black" stroke-linecap="round" stroke-linejoin="round"/>
<path d="M10.8751 9C10.8751 9 9.00024 10.3806 9.00024 10.8748C9.00024 11.369 10.8751 12.7495 10.8751 12.7495M9.37522 10.8748H12.9375C13.4846 10.8748 14.0092 11.0921 14.3961 11.4789C14.7829 11.8657 15.0002 12.3903 15.0002 12.9374C15.0002 13.4844 14.7829 14.0091 14.3961 14.3959C14.0092 14.7827 13.4846 15 12.9375 15" stroke="black" stroke-linecap="round" stroke-linejoin="round"/>
</svg>
